PathFileType  4	(X/Y/Z) C:\Users\antoi\Documents\MyRepositories\mobilecap\ResultsAnalysis
DataRate	CameraRate	NumFrames	NumMarkers	Units	OrigDataRate	OrigDataStartFrame	OrigNumFrames
100.0	100.0	5	51	mm	100.0	111	295
Frame#	Time	r_knee			r_shank_antsup			r_ankle			r_calc			r_5meta			r_toe			L_knee			L_shank_antsup			L_ankle			L_calc			L_5meta			L_toe			r_sh2			r_sh3			r_sh4			L_sh2			L_sh3			r_thigh1			r_thigh2			r_thigh3			r_thigh4			r_thigh5			L_thigh1			L_thigh2			L_thigh3			L_thigh4			r.ASIS			r.PSIS			L.ASIS			L.PSIS			C7			R_Shoulder			L_Shoulder			R_Sternum			L_Sternum			R_humerus			R_elbow_med			R_elbow_lat			R_forearm			R_wrist_radius			R_wrist_ulna			L_humerus			L_elbow_med			L_elbow_lat			L_forearm			L_wrist_radius			L_wrist_ulna			R_HJC			L_HJC			R_HJC_reg			L_HJC_reg			
		X1	Y1	Z1	X2	Y2	Z2	X3	Y3	Z3	X4	Y4	Z4	X5	Y5	Z5	X6	Y6	Z6	X7	Y7	Z7	X8	Y8	Z8	X9	Y9	Z9	X10	Y10	Z10	X11	Y11	Z11	X12	Y12	Z12	X13	Y13	Z13	X14	Y14	Z14	X15	Y15	Z15	X16	Y16	Z16	X17	Y17	Z17	X18	Y18	Z18	X19	Y19	Z19	X20	Y20	Z20	X21	Y21	Z21	X22	Y22	Z22	X23	Y23	Z23	X24	Y24	Z24	X25	Y25	Z25	X26	Y26	Z26	X27	Y27	Z27	X28	Y28	Z28	X29	Y29	Z29	X30	Y30	Z30	X31	Y31	Z31	X32	Y32	Z32	X33	Y33	Z33	X34	Y34	Z34	X35	Y35	Z35	X36	Y36	Z36	X37	Y37	Z37	X38	Y38	Z38	X39	Y39	Z39	X40	Y40	Z40	X41	Y41	Z41	X42	Y42	Z42	X43	Y43	Z43	X44	Y44	Z44	X45	Y45	Z45	X46	Y46	Z46	X47	Y47	Z47	X48	Y48	Z48	X49	Y49	Z49	X50	Y50	Z50	X51	Y51	Z51	

111	1.10000000	-646.46599	1116.73683	-420.27139	-622.02537	995.59875	-424.17543	-733.58993	669.47644	-448.95559	-784.38713	689.72836	-516.36020	-688.38628	515.43198	-428.17000	-619.56108	522.26372	-473.63154	-684.35237	1114.91113	-780.08387	-656.33921	1005.11638	-773.11915	-796.76149	687.74719	-750.62078	-849.44448	702.15092	-684.48399	-743.52575	533.90166	-780.41821	-687.32258	535.61228	-725.58032	-623.54624	881.01389	-442.17323	-692.43372	990.12683	-390.05285	-690.12789	872.63613	-392.61723	-742.35995	1022.72101	-793.46765	-747.29041	900.15562	-808.90138	-551.27992	1352.72713	-426.64660	-550.97824	1240.70796	-441.95582	-582.43976	1210.34132	-390.85742	-644.44821	1339.06574	-362.73936	-636.69278	1222.88957	-382.58193	-607.52204	1367.43265	-805.36389	-595.90248	1231.32172	-796.82831	-719.53555	1356.39167	-816.45317	-705.69256	1219.30727	-804.66486	-581.27258	1619.99373	-456.08813	-774.84131	1684.90574	-532.41599	-590.64904	1617.70847	-721.92386	-780.05722	1686.13455	-630.58781	-631.71336	2172.67581	-579.80886	-586.50070	2131.96775	-413.05727	-566.94115	2164.02459	-710.19715	-499.25543	2076.91520	-546.51084	-502.07932	2074.64714	-596.31885	-628.18572	2051.84108	-275.68788	-744.84187	1865.28767	-176.90945	-753.70016	1952.39725	-143.63547	-585.13618	1956.37821	-120.20050	-469.03209	1941.95244	-90.89526	-480.72119	1947.31047	-49.35837	-497.89476	2140.76399	-854.53263	-441.86484	1986.38094	-1023.76192	-434.06817	2072.61297	-1035.88984	-295.66567	2082.60126	-934.04921	-184.63768	2103.49797	-899.34364	-170.57862	2112.42541	-944.67353	-673.51395	1553.57445	-487.71203	-681.27888	1541.78883	-700.63651	-665.35269	1550.44834	-490.41983	-674.66766	1552.64254	-665.72470	
112	1.11000000	-633.61628	1116.92303	-420.76848	-607.05719	996.46114	-424.54908	-713.00236	668.18836	-448.77843	-764.52616	687.22754	-516.15978	-664.58209	515.32101	-427.54306	-596.17068	523.78105	-473.03449	-671.00682	1114.63196	-780.07341	-641.36964	1005.25253	-773.29563	-777.58737	685.86935	-752.47498	-831.58516	697.98135	-686.75755	-719.52191	534.16287	-783.77779	-663.99187	536.82063	-728.20437	-606.71269	881.88044	-442.61106	-677.19335	989.60970	-390.42715	-672.77302	872.14781	-392.91548	-727.40675	1021.60230	-794.54460	-730.41352	899.03575	-810.46216	-541.79711	1353.87853	-427.30045	-539.87881	1241.81747	-442.43366	-571.06244	1211.05500	-391.43691	-634.65420	1338.98930	-363.21331	-625.46443	1222.89199	-383.17484	-597.45301	1367.87773	-804.37910	-584.32015	1231.92026	-795.58938	-709.37472	1355.56102	-816.44901	-693.95881	1218.64640	-804.46725	-574.12034	1620.03453	-456.19418	-767.63515	1684.48826	-532.71489	-583.62730	1617.66517	-721.98135	-772.63728	1685.61079	-630.83195	-620.16764	2172.23698	-579.50186	-574.73611	2130.40754	-412.82760	-554.50144	2162.99114	-710.32394	-488.99967	2075.49445	-546.86137	-491.56527	2072.87969	-596.18808	-617.04542	2049.71154	-276.03090	-738.91538	1866.09272	-178.80287	-744.96263	1953.02153	-144.30666	-576.68315	1949.17687	-115.78763	-462.59597	1929.11150	-83.22359	-475.02098	1934.13785	-41.94910	-484.71820	2137.55076	-853.67962	-432.35804	1983.51014	-1023.60361	-423.35320	2069.46059	-1035.45140	-282.68424	2076.92332	-936.27448	-170.73201	2095.90362	-903.90536	-157.34529	2104.75206	-949.45442	-666.15956	1553.40210	-487.83721	-673.84623	1541.49610	-700.75807	-658.25617	1550.36913	-490.62606	-667.19280	1552.37496	-665.92521	
113	1.12000000	-620.82653	1116.16302	-421.06878	-592.22755	996.40975	-424.90223	-692.20579	665.97515	-448.42134	-744.56016	683.78609	-515.76077	-640.39506	514.33853	-426.87835	-572.79667	524.39258	-472.60649	-657.63554	1113.44529	-779.79022	-626.33030	1004.58163	-773.48198	-758.51788	683.04614	-754.53040	-813.33996	692.69969	-688.94769	-695.31858	533.77103	-787.00701	-640.32967	537.62195	-731.01736	-589.88286	881.78469	-442.96284	-662.04855	988.33256	-390.72925	-655.36546	870.81784	-393.10499	-712.32891	1019.76124	-795.69577	-713.49721	897.13039	-811.90920	-532.46375	1353.93874	-428.07385	-528.96039	1242.05557	-442.88758	-559.86464	1210.77929	-391.94047	-624.92780	1337.95726	-363.65238	-614.49067	1221.86189	-383.92382	-587.19106	1367.46848	-803.35663	-572.65540	1231.63725	-794.05685	-698.98068	1353.77690	-816.43066	-682.02636	1217.11497	-804.66517	-567.04921	1619.23807	-455.88194	-760.41513	1683.22645	-532.96233	-576.57909	1616.62157	-721.95747	-765.22188	1684.14760	-631.04943	-608.77601	2170.59907	-579.16247	-562.99101	2127.88713	-412.82326	-542.17806	2161.11690	-710.44490	-478.61315	2073.09955	-547.22620	-481.20584	2070.03996	-596.50201	-605.69340	2046.60976	-276.53186	-733.05832	1866.66874	-180.27980	-735.97414	1953.30870	-144.76871	-568.22752	1940.32840	-111.78985	-456.79418	1914.57913	-75.63178	-469.94016	1919.46634	-34.59143	-471.89433	2133.29377	-852.52992	-423.04876	1979.97032	-1023.55143	-412.87056	2065.73396	-1034.87340	-270.03079	2070.08245	-938.73477	-157.17156	2087.01504	-908.75981	-144.43903	2095.79694	-954.35443	-658.89173	1552.39476	-487.74107	-666.37273	1540.21433	-700.65353	-651.22197	1549.41251	-490.38778	-659.82293	1551.06140	-665.90052	
114	1.13000000	-608.21217	1114.44463	-421.37729	-577.47435	995.39187	-425.29641	-671.31262	663.02550	-447.85286	-724.47360	679.43737	-515.07251	-615.95723	512.55121	-426.13340	-549.10913	523.63103	-472.54920	-644.16407	1111.35994	-779.55110	-611.25048	1003.03384	-773.45132	-739.51423	679.32794	-756.66943	-794.83721	686.37985	-691.05166	-671.10137	532.63756	-789.96576	-616.58780	537.87295	-733.90010	-573.07340	880.73711	-443.27175	-647.00508	986.16802	-390.82790	-638.03852	868.62985	-393.25716	-697.20226	1017.19160	-796.85536	-696.57047	894.43336	-813.13487	-523.21970	1353.05225	-428.67310	-518.18109	1241.39046	-443.29789	-548.85665	1209.53094	-392.49945	-615.37118	1335.88606	-364.14763	-603.64871	1219.95474	-384.61190	-576.82801	1366.22465	-802.15868	-560.77963	1230.52183	-792.42220	-688.31047	1351.07742	-816.57394	-669.79536	1214.65998	-805.04969	-560.04225	1617.48937	-455.35070	-753.20709	1681.16736	-532.98556	-569.40874	1614.46764	-721.77847	-757.83108	1681.96753	-631.23253	-597.44987	2168.00368	-579.10218	-551.24532	2124.45676	-412.90478	-529.99583	2158.14608	-710.46332	-467.94997	2069.53190	-547.20696	-470.87981	2066.30248	-596.80582	-594.20471	2042.66429	-277.12983	-727.23478	1867.09857	-181.25061	-726.72217	1953.24095	-144.95397	-559.96484	1930.07002	-107.98682	-451.74169	1898.48684	-68.26602	-465.71034	1902.97207	-27.65115	-459.53597	2127.53484	-850.66519	-414.05724	1975.79873	-1023.38266	-402.61675	2061.39229	-1034.45673	-257.84397	2062.17438	-941.25429	-144.04451	2076.88467	-913.71239	-131.94249	2085.70302	-959.34125	-651.77723	1550.52240	-487.44460	-658.97775	1537.99248	-700.34633	-644.22753	1547.38481	-489.99194	-652.50025	1548.81683	-665.75389	
115	1.14000000	-595.89294	1111.78807	-421.68158	-562.85021	993.50696	-425.63752	-650.36277	659.25365	-447.23704	-704.00432	674.24285	-514.20934	-591.42619	510.02861	-425.23949	-524.89344	522.11319	-472.26636	-630.54710	1108.41800	-779.71457	-596.29187	1000.68582	-773.37442	-720.45689	674.71420	-758.79406	-776.22768	679.19093	-692.81950	-646.91172	530.76121	-792.68851	-592.75638	537.49353	-736.66992	-556.34975	878.87846	-443.38126	-632.06713	983.11427	-390.67456	-620.94923	865.65481	-393.11360	-682.17750	1013.74290	-797.76385	-679.64399	890.93448	-814.20707	-514.07179	1351.22367	-429.08766	-507.53311	1239.59814	-443.74030	-537.95333	1207.31371	-393.05803	-606.04105	1332.74820	-364.70958	-592.85102	1217.16353	-385.06101	-566.39443	1364.11370	-800.74796	-548.72216	1228.55368	-790.69757	-677.34861	1347.52023	-817.02377	-657.37232	1211.17332	-805.25760	-552.89853	1614.51851	-455.08948	-745.84628	1678.22639	-532.83670	-562.00059	1611.12894	-721.51929	-750.36739	1679.00764	-631.28256	-586.12092	2164.56216	-579.50209	-539.47521	2120.02949	-412.93206	-517.81929	2154.01842	-710.34337	-457.14481	2064.65531	-546.80063	-460.51867	2061.64444	-597.03560	-582.72203	2038.08380	-277.74571	-721.44814	1867.36830	-181.73406	-717.14356	1952.91108	-144.71456	-552.21739	1919.06851	-103.90403	-447.62565	1880.96938	-61.25579	-462.31957	1885.13969	-21.13796	-447.73788	2120.48626	-848.61659	-405.51792	1971.06328	-1023.41301	-392.64146	2056.40440	-1034.20277	-245.97327	2053.26982	-943.50983	-131.45094	2065.52252	-918.65798	-119.95123	2074.51981	-964.27626	-644.62937	1547.58013	-487.16243	-651.66277	1534.79789	-700.05509	-637.07712	1544.28175	-489.80816	-645.14937	1545.67651	-665.57764	
